<?xml version="1.0" standalone="no"?>
<!DOCTYPE svg PUBLIC "-//W3C//DTD SVG 20010904//EN"
 "http://www.w3.org/TR/2001/REC-SVG-20010904/DTD/svg10.dtd">
<svg version="1.0" xmlns="http://www.w3.org/2000/svg"
 width="2228.000000pt" height="2228.000000pt" viewBox="0 0 2228.000000 2228.000000"
 preserveAspectRatio="xMidYMid meet">
<metadata>
Created by potrace 1.14, written by Peter Selinger 2001-2017
</metadata>
<g transform="translate(0.000000,2228.000000) scale(0.100000,-0.100000)"
fill="#000000" stroke="none">
<path d="M10857 22274 c-1 -1 -85 -5 -187 -8 -102 -4 -205 -9 -230 -11 -25 -2
-85 -6 -135 -10 -140 -9 -264 -21 -335 -30 -19 -3 -60 -7 -90 -10 -30 -2 -66
-7 -80 -9 -14 -3 -47 -7 -75 -10 -27 -3 -64 -8 -80 -10 -17 -3 -50 -7 -75 -10
-35 -4 -268 -43 -495 -81 -22 -4 -221 -44 -245 -50 -72 -16 -109 -25 -130 -29
-14 -3 -38 -8 -53 -11 -43 -9 -487 -123 -527 -135 -19 -6 -42 -13 -50 -15
-151 -36 -831 -267 -985 -334 -11 -5 -110 -46 -220 -91 -110 -46 -242 -102
-294 -126 -51 -24 -95 -44 -98 -44 -7 0 -490 -243 -569 -286 -305 -166 -410
-228 -684 -400 -275 -172 -682 -456 -850 -591 -8 -7 -43 -34 -76 -60 -34 -26
-78 -61 -99 -78 -150 -118 -409 -340 -595 -510 -80 -74 -578 -572 -640 -640
-137 -153 -215 -241 -296 -335 -99 -117 -100 -117 -179 -215 -31 -38 -61 -77
-68 -85 -249 -309 -577 -780 -805 -1155 -70 -115 -252 -432 -252 -439 0 -3
-14 -29 -31 -58 -53 -89 -349 -686 -349 -704 0 -2 -16 -38 -35 -80 -19 -41
-35 -77 -35 -79 0 -3 -12 -30 -26 -62 -42 -95 -52 -119 -100 -241 -169 -432
-324 -904 -424 -1297 -36 -142 -108 -447 -116 -490 -3 -16 -11 -57 -19 -90 -7
-33 -16 -76 -19 -95 -3 -19 -7 -44 -10 -55 -2 -11 -7 -40 -12 -65 -4 -25 -8
-47 -9 -50 -1 -5 -16 -85 -20 -110 -1 -8 -6 -37 -9 -63 -4 -27 -9 -57 -11 -67
-2 -10 -13 -87 -24 -171 -12 -85 -23 -167 -26 -184 -2 -16 -7 -57 -10 -90 -3
-33 -8 -73 -10 -90 -2 -16 -6 -61 -10 -100 -3 -38 -8 -88 -10 -110 -42 -391
-52 -1220 -20 -1665 3 -41 7 -102 10 -135 7 -107 16 -209 20 -240 2 -16 6 -55
9 -85 12 -121 16 -156 20 -175 2 -11 7 -51 11 -89 4 -38 8 -79 10 -90 2 -12 6
-37 9 -56 3 -19 15 -96 27 -170 11 -74 22 -144 24 -155 2 -11 8 -47 14 -80 6
-33 14 -73 17 -90 3 -16 16 -84 30 -150 14 -66 27 -133 30 -150 3 -16 7 -37
10 -45 3 -8 8 -25 10 -38 3 -13 18 -81 35 -150 38 -157 33 -139 48 -192 7 -25
28 -103 47 -175 19 -71 51 -181 71 -244 19 -63 36 -122 38 -130 5 -22 104
-312 158 -461 45 -125 190 -490 232 -585 12 -27 37 -84 55 -125 82 -185 275
-580 350 -715 18 -33 44 -80 58 -105 13 -25 44 -81 69 -125 24 -44 48 -87 53
-95 5 -8 55 -91 111 -185 478 -796 1089 -1567 1769 -2230 189 -184 220 -212
510 -469 191 -169 551 -451 825 -646 148 -105 484 -330 530 -356 11 -6 40 -23
65 -39 25 -16 53 -34 62 -40 118 -69 321 -187 348 -202 105 -58 153 -84 225
-124 90 -48 491 -249 498 -249 3 0 47 -20 98 -44 311 -146 797 -337 1174 -459
247 -80 695 -207 820 -233 11 -2 67 -15 125 -28 58 -14 116 -27 130 -30 14 -3
102 -20 195 -40 147 -30 391 -73 520 -91 22 -3 69 -10 105 -15 80 -12 211 -29
276 -36 27 -3 65 -7 84 -9 19 -2 69 -7 110 -10 41 -4 91 -9 110 -11 19 -2 78
-6 130 -9 52 -4 113 -8 135 -10 241 -24 1122 -24 1385 0 25 2 88 7 140 10 52
3 109 8 125 9 17 2 66 6 110 10 44 4 91 9 105 11 14 2 56 7 93 10 37 4 76 8
85 10 9 1 46 6 82 10 36 4 72 9 80 10 8 2 38 6 65 9 28 4 88 13 135 21 47 8
101 16 120 19 19 3 46 8 60 10 14 3 54 10 90 17 36 6 74 13 85 15 11 1 76 14
145 29 69 14 134 27 145 29 11 3 63 14 115 26 52 12 111 26 130 30 28 7 342
88 400 104 496 137 1107 361 1588 582 41 19 76 34 79 34 9 0 514 255 602 303
46 26 85 47 86 47 1 0 64 36 140 80 76 44 139 80 140 80 11 0 523 324 551 348
6 5 30 22 54 37 121 76 476 338 685 504 109 87 428 355 466 391 8 8 55 51 105
95 99 89 596 583 689 686 109 119 149 165 205 229 30 36 71 83 91 105 42 47
240 290 289 355 19 25 37 47 40 50 9 8 201 268 292 395 125 176 298 441 442
678 69 115 126 210 126 213 0 2 13 25 29 51 76 125 289 539 408 792 93 198
267 615 333 796 39 108 132 371 134 380 1 6 23 75 49 155 80 252 213 739 233
860 3 14 7 33 10 42 3 9 7 25 9 35 35 160 47 221 50 238 2 11 8 45 14 75 6 30
13 69 16 85 8 40 45 261 51 305 3 19 7 46 9 60 14 84 18 116 45 345 11 94 22
188 25 210 5 41 9 92 20 255 4 52 9 113 10 135 24 290 24 1114 0 1390 -2 28
-7 91 -10 140 -4 50 -8 110 -10 135 -2 25 -7 74 -10 110 -3 36 -7 79 -10 95
-2 17 -7 55 -10 85 -7 73 -24 209 -30 240 -2 14 -6 43 -9 65 -7 57 -30 203
-72 450 -7 42 -51 256 -70 340 -8 39 -17 79 -19 90 -20 99 -100 412 -156 610
-141 492 -355 1078 -550 1503 -16 34 -43 92 -60 130 -37 81 -223 453 -269 537
-176 326 -344 607 -535 895 -114 173 -341 495 -382 545 -5 6 -44 57 -88 115
-44 58 -82 107 -85 110 -3 3 -43 52 -90 110 -91 114 -373 442 -430 501 -19 20
-59 63 -89 95 -358 390 -865 852 -1321 1205 -76 59 -153 117 -370 276 -36 26
-155 108 -265 181 -110 73 -205 136 -211 140 -44 30 -457 278 -511 307 -26 14
-55 30 -63 35 -128 79 -642 334 -902 448 -350 155 -617 258 -973 378 -181 61
-590 184 -657 199 -10 2 -109 26 -220 54 -112 27 -216 53 -233 56 -16 3 -41 8
-55 11 -14 3 -32 7 -40 9 -8 3 -33 7 -55 11 -22 3 -42 7 -45 9 -3 2 -25 6 -50
10 -25 4 -47 8 -51 10 -3 2 -32 8 -65 14 -32 5 -124 21 -204 34 -80 14 -167
28 -195 32 -106 14 -120 16 -135 20 -8 2 -46 7 -85 11 -38 3 -73 8 -76 10 -3
1 -41 6 -85 9 -43 3 -86 8 -94 10 -8 2 -51 7 -95 10 -44 3 -96 8 -115 10 -19
2 -73 7 -120 10 -47 3 -112 8 -145 10 -190 14 -967 29 -978 19z m743 -899 c91
-4 181 -8 200 -10 19 -2 80 -6 135 -10 55 -3 111 -8 125 -10 14 -2 57 -7 95
-10 39 -3 86 -7 105 -10 19 -3 60 -7 90 -10 30 -3 66 -8 80 -10 14 -3 48 -7
75 -10 28 -4 93 -13 145 -21 52 -8 106 -16 120 -19 26 -4 111 -18 120 -20 3 0
26 -4 51 -8 76 -13 103 -18 119 -22 8 -2 30 -7 48 -10 18 -3 65 -12 105 -21
39 -8 83 -18 95 -20 13 -3 81 -18 150 -35 70 -16 138 -32 152 -35 119 -24 610
-169 825 -244 66 -23 140 -48 165 -57 25 -8 115 -42 200 -75 743 -287 1486
-679 2118 -1116 85 -59 164 -114 176 -122 26 -18 374 -280 401 -302 11 -9 61
-49 110 -89 50 -40 92 -76 95 -79 3 -3 32 -28 65 -55 33 -28 62 -52 65 -55 3
-3 43 -39 90 -80 47 -41 87 -77 90 -80 3 -3 34 -32 70 -64 294 -269 729 -728
970 -1026 24 -30 52 -64 62 -75 34 -40 248 -318 278 -361 8 -12 55 -77 103
-144 75 -104 198 -288 332 -495 81 -125 239 -396 357 -615 53 -96 224 -442
271 -545 25 -55 57 -127 72 -160 183 -407 431 -1114 520 -1485 8 -30 29 -118
48 -195 44 -179 75 -312 81 -350 2 -16 7 -37 10 -45 3 -8 7 -28 10 -45 14 -92
19 -118 36 -205 10 -52 21 -113 24 -135 3 -22 10 -71 16 -110 6 -38 13 -81 15
-95 2 -14 6 -50 10 -80 3 -30 8 -66 10 -80 3 -14 7 -51 10 -83 4 -32 8 -66 10
-77 2 -10 6 -53 10 -95 3 -43 8 -92 10 -109 2 -17 6 -71 10 -121 3 -49 8 -110
10 -135 24 -289 24 -1007 0 -1315 -2 -27 -6 -88 -10 -135 -3 -47 -7 -101 -10
-120 -2 -19 -7 -66 -10 -105 -3 -38 -8 -88 -10 -110 -3 -22 -7 -62 -10 -90 -3
-27 -8 -61 -10 -75 -5 -27 -12 -79 -20 -150 -5 -43 -79 -477 -90 -530 -3 -14
-8 -38 -11 -55 -19 -112 -128 -563 -173 -723 -296 -1040 -717 -1963 -1305
-2861 -88 -134 -303 -442 -342 -490 -7 -9 -51 -67 -99 -129 -47 -62 -92 -120
-99 -130 -38 -47 -272 -328 -281 -338 -5 -6 -25 -29 -44 -50 -250 -284 -655
-693 -861 -871 -24 -21 -54 -47 -66 -58 -81 -77 -299 -258 -477 -397 -56 -43
-111 -87 -122 -96 -57 -47 -402 -290 -550 -387 -222 -145 -302 -195 -585 -360
-176 -104 -560 -300 -788 -404 -348 -159 -734 -310 -1062 -416 -80 -25 -152
-49 -160 -52 -8 -3 -19 -7 -25 -8 -5 -2 -64 -19 -130 -38 -115 -35 -406 -114
-451 -123 -12 -2 -77 -17 -145 -33 -68 -17 -140 -33 -159 -36 -19 -3 -42 -8
-50 -10 -8 -2 -31 -7 -50 -10 -19 -3 -42 -8 -50 -10 -8 -2 -31 -7 -50 -10 -19
-3 -46 -8 -60 -10 -14 -3 -36 -8 -50 -10 -32 -7 -192 -33 -245 -40 -22 -3 -51
-8 -65 -10 -36 -7 -188 -27 -300 -40 -25 -3 -61 -7 -80 -10 -19 -2 -69 -7
-110 -11 -41 -3 -82 -7 -90 -9 -8 -2 -64 -6 -125 -10 -60 -4 -128 -9 -150 -11
-22 -1 -121 -6 -220 -9 -99 -4 -193 -8 -208 -10 -44 -4 -23 8 113 65 163 68
574 272 720 356 63 37 131 75 150 86 19 10 49 27 65 38 17 11 37 23 45 27 53
24 556 367 645 440 6 5 39 31 75 58 36 27 92 72 126 100 33 27 83 68 109 90
235 191 641 586 872 846 406 459 799 1009 1103 1544 134 235 349 659 430 845
18 41 43 98 56 125 116 257 304 755 412 1095 98 310 225 773 267 970 2 8 10
45 19 81 8 37 17 78 20 90 3 13 17 80 31 149 22 103 69 349 90 473 3 15 8 42
11 60 3 17 7 46 10 62 2 17 10 71 18 120 17 104 24 150 31 208 3 23 7 52 9 64
3 12 7 49 11 82 3 33 7 68 9 78 2 10 7 50 11 88 4 39 9 77 10 85 2 8 6 42 9
75 7 59 10 90 21 210 3 33 8 80 10 105 7 66 16 176 20 239 2 31 7 108 11 171
3 63 8 135 9 160 15 238 20 468 20 950 0 484 -4 696 -20 965 -1 28 -6 106 -10
175 -4 69 -8 141 -10 160 -2 19 -6 76 -10 125 -3 50 -8 106 -10 125 -2 19 -7
64 -10 100 -6 67 -11 113 -20 190 -2 25 -7 68 -10 95 -3 28 -7 66 -10 85 -2
19 -7 58 -10 85 -3 28 -8 64 -10 80 -11 78 -27 193 -31 216 -2 15 -6 47 -9 70
-6 49 -7 50 -34 210 -11 64 -23 138 -27 165 -3 27 -8 52 -10 55 -2 3 -6 21 -9
40 -6 41 -47 246 -80 404 -43 212 -143 608 -221 880 -80 276 -283 879 -334
990 -5 11 -23 56 -40 100 -17 44 -35 89 -40 100 -5 11 -48 110 -96 220 -147
340 -349 740 -534 1056 -195 333 -456 723 -650 971 -28 34 -53 68 -57 73 -24
31 -172 212 -233 285 -128 151 -230 261 -455 485 -219 219 -269 266 -401 380
-38 33 -71 63 -74 66 -3 3 -90 74 -193 157 -475 380 -969 691 -1500 947 -95
45 -228 106 -297 135 -69 29 -128 55 -132 59 -8 6 10 6 262 -4z m-905 -10225
c1 -5624 -1 -10230 -3 -10236 -2 -7 -19 -11 -40 -9 -20 2 -84 6 -142 10 -58 3
-125 7 -150 9 -25 2 -83 7 -130 11 -47 3 -98 8 -115 10 -16 2 -55 7 -85 10
-120 12 -146 15 -175 20 -16 2 -52 7 -80 10 -27 3 -61 8 -75 10 -14 2 -86 13
-160 25 -122 19 -305 51 -370 65 -14 3 -38 8 -55 10 -25 4 -430 97 -475 109
-77 21 -107 29 -120 31 -160 36 -629 184 -900 285 -322 120 -530 207 -805 335
-566 266 -1111 585 -1622 952 -96 68 -181 130 -191 138 -9 7 -80 62 -157 122
-77 60 -151 118 -165 130 -14 11 -88 74 -165 139 -77 65 -160 137 -185 159
-25 23 -81 74 -125 115 -167 153 -478 465 -615 616 -79 87 -208 234 -255 289
-27 32 -55 63 -60 69 -6 6 -62 76 -126 156 -237 298 -421 554 -614 852 -174
270 -183 285 -294 483 -56 99 -108 191 -116 205 -42 72 -263 517 -328 660 -77
171 -242 578 -297 735 -18 50 -36 99 -41 110 -27 65 -199 625 -219 715 -4 19
-17 69 -28 110 -11 41 -23 86 -26 100 -3 14 -23 104 -45 200 -23 96 -43 189
-46 205 -2 17 -7 41 -10 55 -3 14 -7 36 -10 50 -3 14 -7 34 -9 45 -2 11 -7 40
-11 65 -4 25 -9 54 -11 65 -4 17 -24 144 -40 241 -3 17 -6 46 -9 65 -2 19 -8
68 -14 109 -6 41 -13 100 -16 130 -4 30 -8 66 -10 80 -2 14 -6 59 -10 100 -4
41 -8 86 -10 100 -7 47 -20 249 -31 495 -13 286 -7 899 11 1085 3 25 7 81 10
125 6 98 15 202 20 235 2 14 7 57 10 95 4 39 8 81 10 95 2 14 6 45 9 70 6 46
33 236 42 300 3 19 17 98 30 175 14 77 27 151 29 165 2 14 18 90 35 170 17 80
32 154 34 165 5 23 19 79 47 190 12 44 22 89 24 100 14 81 155 548 235 775 28
80 52 150 54 155 5 17 16 46 73 195 67 175 168 418 231 555 42 92 314 635 337
673 6 9 30 53 54 97 232 420 659 1053 934 1385 7 8 52 65 101 125 49 61 94
115 100 120 6 6 24 26 40 45 45 55 145 168 217 245 37 38 78 84 93 100 95 105
404 408 571 561 833 760 1821 1398 2850 1839 148 63 323 135 380 156 28 9 82
29 120 44 150 57 492 171 615 206 25 7 50 14 55 15 179 54 620 166 738 188 12
2 56 11 97 19 92 19 125 26 170 33 19 3 42 7 50 9 14 4 311 51 375 60 17 2 64
9 105 14 75 11 132 17 225 27 28 3 66 7 85 9 19 2 71 7 115 11 44 3 96 8 115
10 19 1 94 6 165 10 72 3 131 7 133 9 1 1 12 2 25 1 l22 -1 0 -10225z"/>
</g>
</svg>
